<svg width="68" height="68" viewBox="0 0 68 68" fill="none" xmlns="http://www.w3.org/2000/svg">
<g filter="url(#filter0_d_22_65)">
<rect x="4" width="60" height="60" rx="10" fill="url(#paint0_linear_22_65)" shape-rendering="crispEdges"/>
<rect x="4.5" y="0.5" width="59" height="59" rx="9.5" stroke="url(#paint1_linear_22_65)" stroke-opacity="0.8" shape-rendering="crispEdges"/>
<g clip-path="url(#clip0_22_65)">
<path d="M22.3332 44.1415L51.4166 31.6748C52.7666 31.0915 52.7666 29.1915 51.4166 28.6081L22.3332 16.1415C21.2332 15.6581 20.0166 16.4748 20.0166 17.6581L19.9999 25.3415C19.9999 26.1748 20.6166 26.8915 21.4499 26.9915L44.9999 30.1415L21.4499 33.2748C20.6166 33.3915 19.9999 34.1081 19.9999 34.9415L20.0166 42.6248C20.0166 43.8081 21.2332 44.6248 22.3332 44.1415Z" fill="#E5E5E5"/>
</g>
</g>
<defs>
<filter id="filter0_d_22_65" x="0" y="0" width="68" height="68" filterUnits="userSpaceOnUse" color-interpolation-filters="sRGB">
<feFlood flood-opacity="0" result="BackgroundImageFix"/>
<feColorMatrix in="SourceAlpha" type="matrix" values="0 0 0 0 0 0 0 0 0 0 0 0 0 0 0 0 0 0 127 0" result="hardAlpha"/>
<feOffset dy="4"/>
<feGaussianBlur stdDeviation="2"/>
<feComposite in2="hardAlpha" operator="out"/>
<feColorMatrix type="matrix" values="0 0 0 0 0 0 0 0 0 0 0 0 0 0 0 0 0 0 0.05 0"/>
<feBlend mode="normal" in2="BackgroundImageFix" result="effect1_dropShadow_22_65"/>
<feBlend mode="normal" in="SourceGraphic" in2="effect1_dropShadow_22_65" result="shape"/>
</filter>
<linearGradient id="paint0_linear_22_65" x1="-6.32609" y1="-6.53419e-06" x2="76.6815" y2="2.84406" gradientUnits="userSpaceOnUse">
<stop stop-color="#019A5A" stop-opacity="0.7"/>
<stop offset="1" stop-color="#019A5A" stop-opacity="0.8"/>
</linearGradient>
<linearGradient id="paint1_linear_22_65" x1="34" y1="0" x2="34" y2="60" gradientUnits="userSpaceOnUse">
<stop stop-color="#019A5A"/>
<stop offset="1" stop-color="#019A5A"/>
</linearGradient>
<clipPath id="clip0_22_65">
<rect width="40" height="40" fill="white" transform="translate(16 10)"/>
</clipPath>
</defs>
</svg>
